<svg id="icon" xmlns="http://www.w3.org/2000/svg" viewBox="0 0 300 300"><path d="M66.74 0C29.766 0 0 29.766 0 66.74v166.52C0 270.234 29.766 300 66.74 300h166.52c36.974 0 66.74-29.766 66.74-66.74V66.74C300 29.766 270.234 0 233.26 0zm81.57 32.1c29.2 0 55.6 11.27 75.7 32.34 15.3 15.9 23.9 32.73 28.3 54.9 1.5 7.38 1.5 27.5.1 35.8-4.6 26.24-19.2 50.14-40.5 66.2-7.6 5.74-26.2 15.76-29.2 15.76-1.1 0-1.2-1.14-.7-5.75.9-7.4 1.8-8.94 6-10.7 6.7-2.8 18.1-10.92 25.1-17.94 12.1-12 21-27.7 25.1-44.2 2.6-10.3 2.3-33.2-.6-43.8-9.1-33.7-36.6-59.9-70.3-66.9-9.8-2-27.6-2-37.5 0-34.1 7-62.3 34.5-70.9 69.1-2.3 9.4-2.3 32.3 0 41.7 5.7 22.9 20.5 43.9 39.9 56.4 3.8 2.5 8.4 5.1 10.3 5.9 4.2 1.8 5.1 3.3 5.9 10.7.5 4.5.4 5.8-.7 5.8-.7 0-5.8-2.2-11.2-4.8l-.5-.37c-30.9-15.2-50.7-40.92-57.9-75.14-1.8-8.83-2.1-29.9-.4-38 4.5-21.75 13.1-38.76 27.4-53.8 20.6-21.72 47.1-33.2 76.6-33.2zm1.674 35.123c5.112.06 10.04.492 13.827 1.328 34.8 7.75 59.499 42.6 54.699 77.17-1.9 13.93-6.7 25.37-15.2 36-4.2 5.37-14.4 14.379-16.2 14.379-.3 0-.6-3.4-.6-7.54V181l5.2-6.2c19.6-23.48 18.2-56.28-3.2-77.8-8.3-8.38-17.9-13.3-30.3-15.57-8-1.48-9.7-1.48-18.1-.1-12.75 2.08-22.63 7.02-31.4 15.7-21.5 21.3-22.9 54.27-3.3 77.77l5.16 6.2v7.6c0 4.2-.33 7.6-.74 7.6-.4 0-3.3-2-6.4-4.5l-.42-.14c-10.4-8.3-19.6-23.02-23.4-37.46-2.3-8.72-2.3-25.3.1-34 6.3-23.48 23.6-41.68 47.6-50.23 5.126-1.813 14.156-2.746 22.674-2.647zm-1.625 37.375c1.146 0 2.287.075 3.405.205 13.01.98 23.065 11.82 23.066 24.867 0 13.773-11.166 24.94-24.94 24.94a24.94 24.94 0 01-17.603-7.272c-5.407-4.436-8.3-10.876-8.377-18.738 0-9.15 5.1-17.13 13.9-21.8 2.8-1.47 6.674-2.205 10.55-2.202zm-.16 59.101c12.35-.05 21.331 4.361 24.631 12.121 2.48 5.8 1.55 24.15-2.72 53.78-2.9 20.7-4.5 25.93-8.5 29.45-5.5 4.87-13.3 6.22-20.7 3.6l-.07-.01c-8.95-3.2-10.87-7.55-14.54-33.04-4.27-29.63-5.2-47.97-2.73-53.78 3.28-7.7 12.18-12.071 24.63-12.121z"/></svg>