<svg id="icon" xmlns="http://www.w3.org/2000/svg" viewBox="0 0 256 255.944"><path d="M0 173.477c0 3.177 1.152 5.58 3.455 7.207 2.303 1.628 4.765 2.204 7.385 1.728 2.462-.477 4.19-1.35 5.183-2.621.992-1.27 1.489-3.375 1.489-6.314v-34.546c0-2.462-.854-4.547-2.562-6.254-1.707-1.708-3.791-2.561-6.254-2.561-2.382 0-4.427.853-6.135 2.561C.854 134.384 0 136.47 0 138.931zm27.399 14.772c0 2.303.814 4.03 2.442 5.182 1.628 1.152 3.713 1.727 6.254 1.727 2.62 0 4.745-.576 6.373-1.727 1.628-1.151 2.442-2.879 2.442-5.182V107.72c0-2.382-.854-4.427-2.561-6.135-1.708-1.707-3.792-2.56-6.254-2.56-2.383 0-4.428.853-6.135 2.56-1.708 1.708-2.561 3.753-2.561 6.135zm27.28 3.812c0 2.303.833 4.03 2.501 5.182 1.668 1.152 3.812 1.727 6.433 1.727 2.541 0 4.626-.575 6.254-1.727 1.628-1.152 2.442-2.879 2.442-5.182v-73.5c0-2.462-.854-4.567-2.561-6.314-1.708-1.747-3.752-2.62-6.135-2.62-2.462 0-4.566.873-6.314 2.62-1.747 1.747-2.62 3.852-2.62 6.314v73.5zm27.398.357c0 4.368 2.939 6.552 8.815 6.552 5.877 0 8.815-2.184 8.815-6.552V73.293c0-6.67-2.025-10.443-6.075-11.317-2.62-.635-5.202.12-7.743 2.264-2.541 2.144-3.812 5.162-3.812 9.053v119.125zm27.876 3.455V66.265c0-4.13 1.23-6.592 3.693-7.386 5.32-1.27 10.602-1.906 15.843-1.906 12.15 0 23.468 2.86 33.95 8.577 10.484 5.718 18.962 13.52 25.434 23.408 6.472 9.888 10.225 20.787 11.257 32.7 4.844-2.065 10.006-3.097 15.486-3.097 11.118 0 20.629 3.931 28.53 11.793C252.05 138.217 256 147.667 256 158.706c0 11.119-3.951 20.609-11.853 28.471-7.902 7.862-17.373 11.794-28.412 11.794l-103.639-.12c-.715-.238-1.25-.675-1.608-1.31-.357-.635-.535-1.192-.535-1.668z"/></svg>